<svg width="16" height="14" viewBox="0 0 16 14" fill="none" xmlns="http://www.w3.org/2000/svg">
<path fill-rule="evenodd" clip-rule="evenodd" d="M1.27225 6.52523C5.26389 4.67298 7.92564 3.45185 9.25739 2.86191C13.06 1.17742 13.8501 0.884786 14.3651 0.875101C14.4784 0.872994 14.7316 0.902901 14.8957 1.04469C15.139 1.25501 15.1404 1.71154 15.1134 2.01368C14.9073 4.31967 14.0157 9.91563 13.5621 12.4984C13.3701 13.5912 12.9922 13.9577 12.6263 13.9935C11.8312 14.0714 11.2274 13.4338 10.4573 12.8962C9.25215 12.0548 8.57132 11.531 7.40152 10.71C6.04966 9.7612 6.92603 9.23973 7.69645 8.38746C7.89809 8.16443 11.4015 4.77045 11.4693 4.46255C11.4778 4.42404 11.4857 4.28048 11.4056 4.20472C11.3256 4.12895 11.2074 4.15481 11.1221 4.17544C11.0013 4.20466 9.07607 5.55994 5.34658 8.24122C4.80011 8.6409 4.30514 8.83561 3.86169 8.82541C3.37277 8.81419 2.43237 8.53101 1.73325 8.28896C0.875759 7.99211 0.194235 7.83511 0.253605 7.33096C0.28452 7.06829 0.624052 6.79975 1.27225 6.52523Z" fill="white"/>
</svg>
